<svg version="1.1" id="Layer_1" xmlns="http://www.w3.org/2000/svg" x="0" y="0" viewBox="0 0 159.37 95.33" style="enable-background:new 0 0 159.37 95.33" xml:space="preserve"><style>.st0{fill:#056237}.st1{fill:none}</style><path class="st0" d="M158.53 40.07c-.3-.66-1.32.25-2.23.1-.91-.15-1.16-2.37-1.06-2.58.1-.2 1.17-.15 1.42-.96.25-.81 1.01-.65.66-1.31-.36-.66-1.07-.66-1.27-1.06-.2-.41-.71-.16-.86-.41-.15-.25-.3-.76-.3-1.36 0-.61 1.16-.26 1.16-1.17 0-.91-.6-2.27-.6-2.27s-.51.4-.76.76c-.26.35-1.22 0-1.82.25-.61.25-1.86.42-1.86.42-.35-.13-.79-2.04.19-2.76.98-.73.6-1.91.6-1.91s-.57.44-1.06.47c-.49.04-1.9.14-1.7-1.24.2-1.38 2.53-1.91 2.53-1.91s-.05-.01-.46-.35c-.4-.34-1.6-2.48-2.29-3.41-.69-.92-.71-1.29-.77-2.44-.07-1.15-.88-1.57-.88-1.57-.84-.13-1.89.66-2.55 1.35-.65.69-2.61 1.16-2.64.83-.03-.34 1.14-1.05 1.16-2.68.02-1.64-.98-2.28-.98-2.28.17 1.79-.27 2.41-.27 2.41-.84-.08-1.82-.91-2.39-2.22-.57-1.32-.22-2.02-.22-2.87 0-.84-1.16-1.92-1.83-1.35-.68.58-.88 1.23-1.44 1.2-.55-.03-.33-1.55-.05-2.36.29-.81.93-2.14.56-2.48-.37-.33-1-.11-1.3-.25-.3-.13-.02-1.06.25-1.36.27-.31.96-1.54.76-2.3-.2-.75-1.06-.55-1.77-.47-.71.09-1.84-.13-1.84-.13s-.05.67.11 1.38c.15.71 1.02.62 1.02.62s.05.07.16.79c.1.73-.24.72-.24.72-1.69-.18-2.28-1.07-2.44-1.43-.16-.36-.33-1.57-.57-1.81s-1.51-.1-1.51-.1c-.36-.42-1.42-.57-1.42-.57-.03.32.31 1.58.88 1.98.58.41 1.3 2.9 1.07 4.08-.24 1.18-.46 2.17-.46 2.17s-.4-.16-.76-.65c-.35-.49.27-1.79-.08-2.56-.36-.78-2.23-1.08-2.06-.65.17.44-.23 1.66-.23 1.66l-.44-.54c-.44-.54-1.74-.54-1.74-.54-.3.87.44 1.85.64 2.22.2.37.2 1.38.88 1.94.67.56.39 2.11-.07 2.71-.45.61-.79 1.71-.79 1.71s-.29-.27-.69-.9c-.41-.62-1.32-1.11-1.94-1.31s-1.26-.61-1.18-1.28c.08-.68 1.04-.51 1.18-.76.13-.25-.25-.89-.64-1.97s-.09-3.95-.09-3.95-.77-.67-1.75.05c-.98.73-.52 2.68-.67 2.85-.15.17-1.23.1-1.42.9-.18.79 1.67 1.48 1.55 2.17-.12.69-1.88.1-2.24 1.1-.35.99-.91 1.9-1.52 2.47-.6.58-.27 3.47-.27 3.47l-1.51.17s-.24.34-1.06 1.64c-.83 1.3-3 1.48-3.51 2.48-.51.99.89 2.64.89 2.64s-1.08.84-1.36 1.55c-.29.71-1.1 1.35-1.3 1.97-.2.63.71 1.37 1.69 1.61.97.23 1.29.64 2.1 1.5.81.85 1.18 1.17 1.18 1.17s-.2.29-.59.68c-.38.39-1.08.99-1.92.81-.84-.19-1.01-.98-1.18-1.32-.17-.33-2.58.1-3.08-.38-.51-.49-.15-2.26-.02-2.43.14-.17.57-.83.44-1.03-.14-.2-1.47.39-1.94.35-.47-.03-.77-.42-1.01-.77-.24-.35-1.05.05-.83.81.22.76.14 2.12.02 2.58-.12.45-.08 1.23.44 1.21s1.94-.37 2.12.07c.19.44.14 1.5.14 1.5s-.48-.83-.63-.98c-.15-.15-1.29.12-1.6.42-.3.31.04 1.1.42 1.43.39.34.37 1.72 0 1.94s-.87.93-.72 2.13c.15 1.19.62 2.61 1.06 3.37s-.67 1.58-1.4 1.72c-.72.13-.61.65-.82 1.55-.22.89-1.72 1.65-1.99 2-.27.36.22 1.76.47 1.23.25-.52 1.63-.62 1.63-.62s.09 1.72.09 2.19.57 1.55 1.3 1.43c.72-.12.99-.69 1.51-.97.53-.29 1.44-.76 1.6-1.3.17-.54.75-1.3.75-1.3l.66.36c.68.79-.43 1.39-1.01 2.2-.58.81.73 1.44 1.09 2.02.35.59-.53.71-1.12 1.72-.58 1.01.94 1.42 1.22 2.08.28.65-1.72 2.07-1.72 3.16 0 1.08 2.38 1.59 2.38 2.14 0 .56.55 1.65.55 1.65s.96-.91.81-1.59c-.15-.69 1.09-1.8 1.54-1.95.46-.15 1.12-.13 1.12.61 0 .73.65 1.49.65 1.49s.41-.96.48-2.05c.08-1.09 1.19-1.57 1.44-1.06.26.5-.3 1.97-.27 3.03.02 1.06.75 2.02 1.34 2.12.58.11 1.31 1.55 1.74 1.9.43.35 3.26-1.19 3.46-1.44.21-.25 1.28-.71 1.42-1.14.35-1.06-.68-2.2-.68-2.2s.86.74 1.08.26c.23-.48.33-1.67 1.32-1.22.98.46 2.07 3.11 2.07 3.11s-.4.68-.93.05c-.54-.63-1.93-1.57-1.93-1.57s.71 1.75 1.47 2.58c.76.84 1.85 3.64 1.85 3.64l.41 15.61s-1.35.55-2.84.73c-1.49.17-4.64 1.33-4.64 1.33H2.66v1.56H146.9v-1.28s-6.29 0-6.88-.02c-.58-.03-1.16-.1-1.74-.68-.58-.59-3.87.35-5.49-1.07-1.61-1.41-1.46-4.01-1.46-4.01s1.08-16.39.88-18.31.79-3.11.79-3.11.12.43.12 1.34.13 2.96.13 2.96 2.17-1.09 1.82-2.35c-.36-1.27.48-1.75.48-1.75s.73.31.81.99c.07.68.71 2.1.38 2.78-.33.68-.33 1.67-.33 1.67 1.54-.23 2.38-1.27 2.65-2.48.28-1.21 1.29-2.96 1.7-3.06.4-.1.81.58 1.31 1.01.51.43 1.54.41 1.67.08.13-.33.66-1.54 1.09-.3.43 1.23 1.34 1.44 1.29 1.31-.05-.13-.1-1.97-.1-1.97s.32-.13 1.06-.56c.73-.43.55-1.24.48-2.27-.08-1.04 1.06-1.04 1.64.1.58 1.14 1.44 1.39 1.44 1.39.36-.71.23-2.18-.45-3.24-.69-1.06-.15-2.27-.15-2.27s-.14.3 1.48 1.45c1.62 1.14 3.3 1.31 3.3 1.31l.07-4.95s-1.92.77-2.87-.37c-.94-1.15-.37-2.3-.37-2.3s1.01.85 1.62 1.35c.61.51 1.38.44 1.38.44s.19-1.63.29-2.39c.1-.76 2.17-1.57 1.97-2.18-.2-.6-1.46-.5-1.26-1.11s2.37-.1 3.33-.66c.97-.55-.15-1.31-.45-1.97zm-52.15 1.89c-.64.49-1.13.59-1.13 1.18s.02 1.01-.47 1.28-1.09.02-1.09.02-.29-.88.22-1.23c.5-.36 1.06-.59 1.11-.96.05-.38-.05-1.96 1.6-2.01 0 0 .4 1.23-.24 1.72zm13.77 18.86c.09.71-1.19 1.36-1.19 1.36s-.53-1.36-.02-2.09c.51-.72.84-.99 1.3-.99 0 0-.17 1.01-.09 1.72zm-.4-5.7c-.04-.77.07-1.35-.39-1.85 0 0 1.23.08 1.69.86.45.77-.37 2.07-.37 2.07s-.9-.3-.93-1.08zm2.31 4.06c-.2.05-1.06.07-1.06.07s-.46-1.4.23-2.04c.69-.64 1.42-1.11 1.42-1.11s-.31 1.13.03 1.89c.34.76-.42 1.14-.62 1.19zm6.81 16.03s-.84-1.85-1.01-5.39c-.18-3.54-.63-11.98-.63-12.38 0-.41.31-.81.61-.9 0 0 .54-.19.83.73.29.93.2 17.94.2 17.94zm1.85-4.22s-.76-2.53-.71-5.87c.05-3.33-.13-6.77.29-6.9 0 0 .75-.1.77.81.03.91-.15 10.04-.35 11.96z"/><path class="st1" d="M106.62 40.24s.4 1.23-.24 1.72-1.13.59-1.13 1.18.02 1.01-.47 1.28-1.09.02-1.09.02-.29-.88.22-1.23c.5-.36 1.06-.59 1.11-.96.05-.38-.05-1.96 1.6-2.01zm13.53 20.58c.09.71-1.19 1.36-1.19 1.36s-.53-1.36-.02-2.09c.51-.72.84-.99 1.3-.99 0 0-.17 1.01-.09 1.72zm.53-4.62s-.9-.3-.93-1.08c-.04-.77.07-1.35-.39-1.85 0 0 1.23.08 1.69.86.45.77-.37 2.07-.37 2.07zm1.38 2.98c-.2.05-1.06.07-1.06.07s-.46-1.4.23-2.04c.69-.64 1.42-1.11 1.42-1.11s-.31 1.13.03 1.89c.34.76-.42 1.14-.62 1.19zm6.81 16.03s-.84-1.85-1.01-5.39c-.18-3.54-.63-11.98-.63-12.38 0-.41.31-.81.61-.9 0 0 .54-.19.83.73.29.93.2 17.94.2 17.94zm1.85-4.22s-.76-2.53-.71-5.87c.05-3.33-.13-6.77.29-6.9 0 0 .75-.1.77.81.03.91-.15 10.04-.35 11.96z"/><path class="st1" d="M106.38 41.96c-.64.49-1.13.59-1.13 1.18s.02 1.01-.47 1.28-1.09.02-1.09.02-.29-.88.22-1.23c.5-.36 1.06-.59 1.11-.96.05-.38-.05-1.96 1.6-2.01 0 0 .4 1.23-.24 1.72zm14.3 14.24s-.9-.3-.93-1.08c-.04-.77.07-1.35-.39-1.85 0 0 1.23.08 1.69.86.45.77-.37 2.07-.37 2.07zm1.38 2.98c-.2.05-1.06.07-1.06.07s-.46-1.4.23-2.04c.69-.64 1.42-1.11 1.42-1.11s-.31 1.13.03 1.89c.34.76-.42 1.14-.62 1.19zm-1.91 1.64c.09.71-1.19 1.36-1.19 1.36s-.53-1.36-.02-2.09c.51-.72.84-.99 1.3-.99 0 0-.17 1.01-.09 1.72zm8.72 14.39s-.84-1.85-1.01-5.39c-.18-3.54-.63-11.98-.63-12.38 0-.41.31-.81.61-.9 0 0 .54-.19.83.73.29.93.2 17.94.2 17.94zm1.85-4.22s-.76-2.53-.71-5.87c.05-3.33-.13-6.77.29-6.9 0 0 .75-.1.77.81.03.91-.15 10.04-.35 11.96z"/><path class="st0" d="M0 55.74c0-3.23.4-6.21 1.2-8.93.76-2.69 1.8-5.05 3.13-7.06 1.35-1.97 2.95-3.5 4.79-4.6s3.73-1.65 5.65-1.65c2.68 0 5.22 1.05 7.62 3.16 2.36 2.11 4.22 4.97 5.59 8.58.72 1.71 1.25 3.53 1.6 5.45.33 1.97.49 4.01.49 6.12 0 4.66-.65 8.67-1.94 12.02-1.35 3.42-3.16 6.02-5.44 7.8-2.25 1.83-4.78 2.74-7.59 2.74-2.83 0-5.37-1.07-7.62-3.2-2.32-2.11-4.14-4.99-5.47-8.65-.64-1.76-1.13-3.67-1.49-5.73C.18 59.72 0 57.71 0 55.74zm3.59-.6c0 3.61.46 7 1.38 10.16S7.24 71.1 9 73.21c1.76 2.11 3.75 3.16 5.96 3.16l.22-.14c2.17 0 4.12-.76 5.84-2.29 1.68-1.5 3-3.71 3.96-6.64.94-2.88 1.41-6.39 1.41-10.51 0-2.44-.25-4.83-.74-7.17-.53-2.32-1.35-4.49-2.46-6.5a16.05 16.05 0 0 0-3.56-4.43c-1.47-1.1-2.98-1.65-4.52-1.65-2.27 0-4.27.79-5.99 2.36C7.36 40.97 6 43.17 5.04 46c-.96 2.84-1.45 5.88-1.45 9.14zm23.65 23.62v-2.67l1.01.28c1.86 0 3.26-1.76 4.18-5.27 2.38-9.04 4.1-16.11 5.16-21.2 1.25-6 1.87-10.58 1.87-13.74l1.5-.39 1.14-.42 1.44-.88 4.09 18.59c.59 2.74.95 4.32 1.08 4.75.29 1.29.73 3.01 1.32 5.17l1.69 7.42c.51 1.97.95 3.39 1.31 4.25s.8 1.3 1.34 1.3h2.09v2.39l-5.59-.14-6.73.28v-2.53l2.49.14c1.27 0 1.91-.67 1.91-2v-.6l-.07-.49-2.33-10.58h-9.37l-2.4 9.56-.34 1.9c0 1.34.87 2.12 2.61 2.36l1.87-.28v2.81c-1.29-.19-2.4-.33-3.32-.42-.92-.09-1.7-.14-2.33-.14-.96-.01-2.83.18-5.62.55zm13.92-38.24-3.78 19.23h8.14l-4.36-19.23z"/><path class="st0" d="M56.48 37.29v-2.81c.72.16 1.71.32 2.96.46 1.26.14 2.21.21 2.84.21 1.33 0 2.35-.05 3.07-.14.68-.09 1.58-.27 2.7-.53v2.81h-.92c-.76 0-1.47.2-2.15.6-.39.38-.65.86-.77 1.44l-.31 2.71.12 1.76v21.72l-.12.88c0 1.33.08 2.65.25 3.95.16 1.3.3 2.26.4 2.86.25 1.83.79 2.74 1.63 2.74h2.64v2.53c-2.01-.4-4.15-.6-6.42-.6s-4.41.2-6.42.6v-2.67h2.15c.96 0 1.63-.43 2-1.3.33-.87.49-2.21.49-4.04v-23.9c0-5.69-.41-8.74-1.23-9.14l-1.32-.14h-1.59zm8.2 19.36 7.53-14.45c.47-.68.71-1.57.71-2.67 0-1.5-.54-2.25-1.63-2.25h-1.51v-2.64c.45.14.82.21 1.11.21.27.05 1.48.19 3.66.42 1.27 0 2.17-.02 2.69-.07s1.6-.23 3.24-.56v2.78h-.77c-.72 0-1.24.08-1.57.25-.37.19-.73.49-1.08.91l-1.26 1.93-7.15 13.79c.41.96.85 1.89 1.32 2.78.96 2.13 1.69 3.66 2.18 4.57l3.53 6.82L79.46 75l4.09 6.43-2.15 1.65-4.46-6.33-4.39-6.71-4.15-6.74-3.72-6.65z"/><path class="st0" d="M90.32 35.7c-1.23 0-2.28.62-3.16 1.86-.41.59-.74 1.27-1 2.04s-.38 1.58-.38 2.42c0 3.56 1.26 6.33 3.78 8.29l2.83 2.14c1.91 1.36 3.42 3.35 4.55 5.98 1.09 2.65 1.63 5.39 1.63 8.22 0 2.3-.28 4.45-.84 6.47-.56 2.02-1.49 3.63-2.77 4.83-1.28 1.21-2.82 1.81-4.62 1.81-1.39 0-2.82-.41-4.27-1.23-1.47-.73-2.51-1.35-3.1-1.86l.03-2.51.06-2.46c0-2.25-.1-4.57-.31-6.96h2.09v2.95c0 2.48.54 4.64 1.63 6.47 1.04 1.88 2.34 2.81 3.9 2.81 1.47 0 2.78-.75 3.9-2.25 1-1.43 1.5-3.37 1.5-5.83 0-3.77-1.5-6.87-4.52-9.28l-3.29-2.81c-3.4-3.02-5.1-7.05-5.1-12.09 0-1.15.1-2.25.31-3.3.22-1.01.5-1.94.83-2.81.59-1.52 1.45-2.74 2.58-3.66 1.13-.87 2.39-1.3 3.78-1.3.76 0 2.12.28 4.09.84l.71.18h.8v8.68h-1.81v-1.93c-.12-.73-.21-1.28-.25-1.65a7.258 7.258 0 0 0-1.14-2.81c-.62-.84-1.44-1.25-2.44-1.25zM44.56 90.48c0 1.37-.89 2.04-2.25 2.04l-1.44-.03v2.71h-.9v-6.9h2.5c1.35 0 2.09.82 2.09 2.18zm-.99-.07c0-.72-.35-1.04-1.19-1.04h-1.5v2.09h1.5c.84 0 1.19-.33 1.19-1.05zm6.03 2.95h-2.77l-.6 1.84h-.94l2.42-6.9h1.02l2.42 6.9h-.95l-.6-1.84zm-.3-.91-1.08-3.14-1.08 3.14h2.16zm18.35.91h-2.77l-.6 1.84h-.94l2.42-6.9h1.02l2.42 6.9h-.94l-.61-1.84zm-.3-.91-1.08-3.14-1.08 3.14h2.16zm-15.62-.7c0-2.05 1.26-3.59 3.07-3.59 1.14 0 2.08.6 2.56 1.63l-.71.53c-.4-.78-1.04-1.19-1.83-1.19-1.27 0-2.16 1.07-2.16 2.62s.89 2.62 2.16 2.62c.78 0 1.43-.41 1.83-1.19l.71.53c-.48 1.03-1.43 1.63-2.56 1.63-1.81-.01-3.07-1.54-3.07-3.59zm8.31-.02 2.97 3.47h-1.18l-2.77-3.24h-.03v3.24h-.9v-6.9h.9v3.24h.03l2.8-3.24h1.15l-2.97 3.43zm15.21-.29v2.77c-.47.7-1.37 1.12-2.43 1.12-1.98 0-3.2-1.49-3.2-3.57 0-2.12 1.28-3.61 3.1-3.61 1.06 0 1.91.5 2.39 1.35l-.7.56c-.36-.62-.96-.95-1.69-.95-1.31 0-2.17 1.05-2.17 2.65 0 1.63.89 2.6 2.28 2.6.67 0 1.23-.23 1.54-.55v-1.47h-1.51v-.92h2.39zm1.82-3.14h.9v6.9h-.9v-6.9zm8.09 0v6.9h-.83l-3.42-5.25v5.25h-.89v-6.9h.84l3.42 5.25V88.3h.88zm7 3.14v2.77c-.47.7-1.37 1.12-2.43 1.12-1.98 0-3.2-1.49-3.2-3.57 0-2.12 1.28-3.61 3.1-3.61 1.06 0 1.91.5 2.39 1.35l-.7.56c-.36-.62-.96-.95-1.69-.95-1.31 0-2.17 1.05-2.17 2.65 0 1.63.89 2.6 2.28 2.6.67 0 1.23-.23 1.54-.55v-1.47h-1.51v-.92h2.39z"/></svg>